<svg xmlns="http://www.w3.org/2000/svg" width="72.949" height="181.309" viewBox="0 0 72.949 181.309">
  <g id="FAQ-lg" transform="translate(-38.78 -18.372)">
    <path id="Path_1" data-name="Path 1" d="M110.428,477.273H44.53V430.04H56.5v34.837H74.508V431.918h11.5v32.958h24.417v12.4Z" transform="translate(-3.553 -278.091)" fill="none" stroke="#6932d4" stroke-miterlimit="10" stroke-width="1"/>
    <path id="Path_2" data-name="Path 2" d="M97.787,241.443v34.368l12.444,5.635v13.427L44.24,265.387V251.866l65.995-29.486V235.9ZM58.1,258.627l28.1,12.208V246.422Z" transform="translate(-3.356 -137.571)" fill="none" stroke="#6932d4" stroke-miterlimit="10" stroke-width="1"/>
    <path id="Path_3" data-name="Path 3" d="M73.031,20.771a37.489,37.489,0,0,1,21.494,6.1l7.73-7.8,8.768,8.733L103.105,35.8c3.207,4.976,4.9,11.267,4.9,18.687,0,23.382-17.064,33.712-34.223,33.806-17.252.094-34.5-10.7-34.5-33.806S56.06,21.052,73.031,20.771ZM74.068,76.08c10.841-.188,22.438-7.323,22.438-21.6,0-14.837-12.538-21.972-23.851-21.5C62,33.448,50.5,38.99,50.5,54.483S62.943,76.268,74.068,76.08Z" fill="none" stroke="#6932d4" stroke-miterlimit="10" stroke-width="1"/>
  </g>
</svg>
