<svg xmlns="http://www.w3.org/2000/svg" width="72.346" height="240.671" viewBox="0 0 72.346 240.671">
  <g id="How-lg" transform="translate(-39.65 -3.56)">
    <g id="Group_1" data-name="Group 1" transform="translate(40.15 4.27)">
      <path id="Path_13" data-name="Path 13" d="M112.94,555.183H85.282v33.486H112.94v12.85H44.53v-12.85H73.361V555.183H44.53V542.43h68.413v12.753Z" transform="translate(-43.062 -362.059)" fill="none" stroke="#fff" stroke-miterlimit="10" stroke-width="1"/>
      <path id="Path_14" data-name="Path 14" d="M76.116,308.045c17.69.194,35.38,11,35.38,34.947s-17.3,35.045-35.283,35.045c-21.6,0-36.064-15.575-36.064-35.336C40.348,319.434,58.329,307.851,76.116,308.045Zm23.555,34.947c0-16.061-12.119-22.1-23.358-22.292-11.436-.194-24.138,6.328-24.433,22,0,14.5,10.946,23.069,24.531,22.68C87.649,365.09,99.672,359.054,99.672,342.993Z" transform="translate(-40.15 -206.229)" fill="none" stroke="#fff" stroke-miterlimit="10" stroke-width="1"/>
      <path id="Path_15" data-name="Path 15" d="M112.65,28.8V39.7l-21.5,8.47-21.6,7.2,21.8,7.105,21.306,8.275v10.9L44.24,106.672V92.267L93.6,76.206,44.24,59.656V51.283L93.6,34.247,44.24,18.675V4.27Z" transform="translate(-42.869 -4.27)" fill="none" stroke="#fff" stroke-miterlimit="10" stroke-width="1"/>
    </g>
  </g>
</svg>
