<svg width="245" height="43" viewBox="0 0 245 43" fill="none" xmlns="http://www.w3.org/2000/svg">
<path d="M67.665 20.3965V34.6454H65.1552V7.03613H78.8257V9.39167H67.6667V18.0409V20.3965H67.665Z" fill="#6932D4"/>
<path d="M99.7132 7.03418V25.067C99.7132 30.4739 102.146 33.1379 107.281 33.1379C112.378 33.1379 114.81 30.4739 114.81 25.067V7.03418H117.32V24.2573C117.32 31.7095 114.038 35.3778 107.279 35.3778C100.521 35.3778 97.2386 31.7095 97.2386 24.2573V7.03418H99.7098H99.7132Z" fill="#6932D4"/>
<path d="M141.842 9.38972H134.235V7.03418H151.96V9.38972H144.353H141.843H141.842Z" fill="#6932D4"/>
<path d="M168.986 7.03418H171.496V34.6434H168.986V7.03418Z" fill="#6932D4"/>
<path d="M237.371 23.1374L232.66 11.1284L227.756 23.1374L226.906 25.3002L223.238 34.6452H220.69L232.815 5.95459L244.438 34.6452H241.697L238.183 25.3002L237.371 23.1374Z" fill="#6932D4"/>
<path d="M193.76 21.4759H189.389V19.4288H194.763C199.05 19.4288 201.056 18.4246 201.056 14.4864C201.056 10.5096 199.164 9.23548 194.763 9.23548H188.564V7.03418H194.801C200.786 7.03418 203.761 9.5054 203.761 14.5635C203.761 18.889 201.019 21.4759 196.578 21.4759H193.76V21.4759Z" fill="#6932D4"/>
<path d="M192.131 21.5079L202.055 34.6754H199.004L189.312 21.5079V19.4307H191.203L192.13 21.5079H192.131Z" fill="#6932D4"/>
<path d="M144.353 12.7612V34.6451H141.843V12.7612" fill="#6932D4"/>
<path d="M69.7679 18.041H78.3988V20.3966H69.7679" fill="#6932D4"/>
<path fill-rule="evenodd" clip-rule="evenodd" d="M21.4928 42.9861C15.9871 42.9861 10.4796 40.8904 6.28828 36.6974C-2.09609 28.313 -2.09609 14.6727 6.28828 6.28828C14.6727 -2.09609 28.313 -2.09609 36.6974 6.28828C45.0817 14.6727 45.0817 28.313 36.6974 36.6974C32.506 40.8887 26.9986 42.9861 21.4928 42.9861ZM6.87004 36.1156C14.9325 44.1781 28.0514 44.1781 36.1139 36.1156C44.1764 28.0531 44.1764 14.9342 36.1139 6.87172C28.0514 -1.19076 14.9325 -1.19076 6.87004 6.87172C-1.19244 14.9342 -1.19244 28.0531 6.87004 36.1156Z" fill="url(#paint0_linear_2_9)"/>
<path d="M18.7497 34.687H12.134C12.134 25.8784 19.2996 18.7129 28.1081 18.7129V25.3285C22.9477 25.3285 18.7497 29.5266 18.7497 34.687Z" fill="url(#paint1_linear_2_9)"/>
<path d="M18.7497 21.4809H12.134C12.134 12.6724 19.2996 5.50684 28.1081 5.50684V12.1225C22.9477 12.1225 18.7497 16.3205 18.7497 21.4809V21.4809Z" fill="url(#paint2_linear_2_9)"/>
<defs>
<linearGradient id="paint0_linear_2_9" x1="-4.35775" y1="19.4474" x2="10.6138" y2="4.47594" gradientUnits="userSpaceOnUse">
<stop stop-color="#F88227"/>
<stop offset="1" stop-color="#F9BA3A"/>
</linearGradient>
<linearGradient id="paint1_linear_2_9" x1="5.98616" y1="31.5518" x2="22.1145" y2="15.4235" gradientUnits="userSpaceOnUse">
<stop stop-color="#F88227"/>
<stop offset="1" stop-color="#F9BA3A"/>
</linearGradient>
<linearGradient id="paint2_linear_2_9" x1="-0.619402" y1="24.9463" x2="15.5089" y2="8.818" gradientUnits="userSpaceOnUse">
<stop stop-color="#F88227"/>
<stop offset="1" stop-color="#F9BA3A"/>
</linearGradient>
</defs>
</svg>
