<svg xmlns="http://www.w3.org/2000/svg" width="70.864" height="315.896" viewBox="0 0 70.864 315.896">
  <g id="Media-lg" transform="translate(-43.728 3.715)">
    <path id="Path_8" data-name="Path 8" d="M63.624,713.75l30.371,22.689v2.587L63.521,761.218h50.853v13.136H44.44V759.227l30.073-21.795L44.44,715.638V700.61h69.938v13.136H63.624Z" transform="translate(-0.197 -462.585)" fill="none" stroke="#6932d4" stroke-miterlimit="10" stroke-width="0.823"/>
    <path id="Path_9" data-name="Path 9" d="M114.078,510.98v52.145H44.14V510.98H56.927v39.108H73.013V512.371H85.3v37.717h15.785V510.98Z" transform="translate(0 -337.928)" fill="none" stroke="#6932d4" stroke-miterlimit="10" stroke-width="0.823"/>
    <path id="Path_10" data-name="Path 10" d="M78.519,299.238c17.683-.3,35.568,10.45,35.568,34.828v27.366H44.15V334.067C44.15,310.185,61.234,299.54,78.519,299.238ZM101.4,348.4V334.07c0-15.823-11.591-22.093-22.98-21.795-10.889.3-21.781,6.668-21.781,21.795V348.4Z" transform="translate(-0.007 -198.731)" fill="none" stroke="#6932d4" stroke-miterlimit="10" stroke-width="0.823"/>
    <path id="Path_11" data-name="Path 11" d="M114.084,248.4H44.15V235.36h69.938V248.4Z" transform="translate(-0.007 -156.743)" fill="none" stroke="#6932d4" stroke-miterlimit="10" stroke-width="0.823"/>
    <path id="Path_12" data-name="Path 12" d="M100.89,17.121V53.543l13.188,5.972V73.744L44.14,42.5V28.168L114.078-3.08V11.249ZM58.829,35.332,88.6,48.27V22.395Z" transform="translate(0)" fill="none" stroke="#6932d4" stroke-miterlimit="10" stroke-width="0.823"/>
  </g>
</svg>
