<svg xmlns="http://www.w3.org/2000/svg" width="72.053" height="307.594" viewBox="0 0 72.053 307.594">
  <g id="What-lg" transform="translate(-43.73 -15.39)">
    <path id="Path_4" data-name="Path 4" d="M115.186,617.24v11.307l-22.3,8.784-22.4,7.47,22.6,7.369,22.1,8.582v11.307L44.24,698V683.062l51.185-16.656L44.24,649.242v-8.683l51.185-17.668L44.24,606.743V591.8Z" transform="translate(-0.007 -375.732)" fill="none" stroke="#fff" stroke-miterlimit="10" stroke-width="1"/>
    <path id="Path_5" data-name="Path 5" d="M115.476,411.9H86.793v34.727h28.683v13.326H44.53V446.623h29.9V411.9H44.53V398.67h70.949V411.9Z" transform="translate(-0.196 -249.731)" fill="none" stroke="#fff" stroke-miterlimit="10" stroke-width="1"/>
    <path id="Path_6" data-name="Path 6" d="M101.8,180.724v36.948l13.379,6.058v14.435l-70.949-31.7V191.93l70.949-31.7v14.536Zm-42.67,18.471,30.205,13.125V186.073Z" transform="translate(0 -94.17)" fill="none" stroke="#fff" stroke-miterlimit="10" stroke-width="1"/>
    <path id="Path_7" data-name="Path 7" d="M56.4,51.625V74.037H44.24V15.89H56.4V38.3h58.787V51.629H56.4Z" transform="translate(-0.007)" fill="none" stroke="#fff" stroke-miterlimit="10" stroke-width="1"/>
  </g>
</svg>
