<svg xmlns="http://www.w3.org/2000/svg" width="71.844" height="305.387" viewBox="0 0 71.844 305.387">
  <g id="When-lg" transform="translate(-43.73 -4.93)">
    <path id="Path_27" data-name="Path 27" d="M114.977,602.941v11.274l-22.232,8.758L70.412,630.42l22.537,7.347,22.031,8.557V657.6L44.24,683.465v-14.9l51.035-16.607L44.24,634.85v-8.657l51.035-17.616-51.035-16.1v-14.9Z" transform="translate(-0.007 -373.864)" fill="none" stroke="#6932d4" stroke-miterlimit="10" stroke-width="1"/>
    <path id="Path_28" data-name="Path 28" d="M115.267,403.717h-28.6v34.625h28.6v13.287H44.53V438.342H74.341V403.717H44.53V390.53h70.74v13.187Z" transform="translate(-0.196 -251.639)" fill="none" stroke="#6932d4" stroke-miterlimit="10" stroke-width="1"/>
    <path id="Path_29" data-name="Path 29" d="M114.97,206.99v52.743H44.23V206.99H57.164v39.557H73.435V208.4H85.866v38.15h15.966V206.99Z" transform="translate(0 -131.707)" fill="none" stroke="#6932d4" stroke-miterlimit="10" stroke-width="1"/>
    <path id="Path_30" data-name="Path 30" d="M91.837,18.717H44.24V5.43h70.74V16.2L67.886,53.644h47.091V66.931H44.24V56.16Z" transform="translate(-0.007 0)" fill="none" stroke="#6932d4" stroke-miterlimit="10" stroke-width="1"/>
  </g>
</svg>
