<svg xmlns="http://www.w3.org/2000/svg" width="72.284" height="365.794" viewBox="0 0 72.284 365.794">
  <g id="Where-lg" transform="translate(-43.439 2.33)">
    <path id="Path_16" data-name="Path 16" d="M115.307,765.122V776.45l-22.338,8.8L70.53,792.732l22.644,7.382,22.132,8.6v11.327L44.23,846.029V831.063l51.278-16.686L44.233,797.182v-8.7l51.278-17.7L44.233,754.606V739.64Z" transform="translate(-0.189 -483.281)" fill="none" stroke="#fff" stroke-miterlimit="10" stroke-width="1"/>
    <path id="Path_17" data-name="Path 17" d="M115.6,565.846H86.869v34.79H115.6v13.35H44.53v-13.35H74.483v-34.79H44.53V552.6h71.077v13.246Z" transform="translate(-0.385 -361.371)" fill="none" stroke="#fff" stroke-miterlimit="10" stroke-width="1"/>
    <path id="Path_18" data-name="Path 18" d="M115.307,369.05v52.994H44.23V369.05h13v39.745H73.574V370.464h12.49v38.331h16.042V369.05Z" transform="translate(-0.189 -241.735)" fill="none" stroke="#fff" stroke-miterlimit="10" stroke-width="1"/>
    <path id="Path_19" data-name="Path 19" d="M115.118,164.88v15.273L91.36,200.683v13.552h23.759v13.35H43.94c0-11.226.1-22.453.1-33.679.1-16.686,11.272-25.486,23.557-25.486,9.746,0,19.6,4.45,22.338,17.9L114.2,164.883h.916ZM56.531,214.232H79.277V193.9c0-8.5-5.686-12.135-11.373-12.135S56.531,185.512,56.531,193.9v20.329Z" transform="translate(0 -108.66)" fill="none" stroke="#fff" stroke-miterlimit="10" stroke-width="1"/>
    <path id="Path_20" data-name="Path 20" d="M115.307-1.83V51.164H44.23V-1.83h13V37.915H73.574V-.413h12.49V37.918h16.042V-1.83Z" transform="translate(-0.189 0)" fill="none" stroke="#fff" stroke-miterlimit="10" stroke-width="1"/>
  </g>
</svg>
