<svg xmlns="http://www.w3.org/2000/svg" width="71.973" height="246.019" viewBox="0 0 71.973 246.019">
  <g id="Who-lg" transform="translate(-39.648 1.469)">
    <path id="Path_21" data-name="Path 21" d="M112.372,450.923V461.8L90.93,470.242l-21.539,7.183,21.736,7.086,21.248,8.252v10.873L44.15,528.584V514.219L93.367,498.2,44.15,481.7v-8.349l49.217-16.99L44.15,440.826V426.46Z" transform="translate(-2.723 -284.623)" fill="none" stroke="#6932d4" stroke-miterlimit="10" stroke-width="0.823"/>
    <path id="Path_22" data-name="Path 22" d="M112.665,246.038H85.084v33.394h27.582v12.815H44.44V279.432H73.191V246.038H44.44V233.32h68.225Z" transform="translate(-2.916 -156.038)" fill="none" stroke="#6932d4" stroke-miterlimit="10" stroke-width="0.823"/>
    <path id="Path_23" data-name="Path 23" d="M75.928-1.055C93.569-.861,111.21,9.915,111.21,33.8S93.96,68.745,76.024,68.745c-21.539,0-35.964-15.532-35.964-35.239C40.257,10.3,58.189-1.249,75.928-1.055ZM99.418,33.8c0-16.017-12.086-22.037-23.293-22.23-11.4-.194-24.072,6.31-24.366,21.94,0,14.463,10.916,23.006,24.463,22.618C87.429,55.833,99.418,49.814,99.418,33.8Z" transform="translate(0 0)" fill="none" stroke="#6932d4" stroke-miterlimit="10" stroke-width="0.823"/>
  </g>
</svg>
