<svg xmlns="http://www.w3.org/2000/svg" width="72.298" height="245.557" viewBox="0 0 72.298 245.557">
  <g id="Why" transform="translate(-43.74 1.17)">
    <path id="Path_24" data-name="Path 24" d="M115.434,419.845v11.346l-22.376,8.814-22.477,7.5L93.264,454.9l22.173,8.612v11.346l-71.2,26.034V485.9L95.6,469.183,44.24,451.959v-8.713L95.6,425.517,44.24,409.311V394.32Z" transform="translate(0 -257.217)" fill="none" stroke="#fff" stroke-miterlimit="10" stroke-width="1"/>
    <path id="Path_25" data-name="Path 25" d="M115.724,220.552H86.941V255.4h28.783v13.373H44.53V255.4h30V220.552h-30V207.28h71.2v13.272Z" transform="translate(-0.189 -135.417)" fill="none" stroke="#fff" stroke-miterlimit="10" stroke-width="1"/>
    <path id="Path_26" data-name="Path 26" d="M73.633,34.28,44.24,15.438V-.67h.61L86.044,27.593h29.393V40.966H86.044L44.85,68.218h-.61V52.313Z" transform="translate(0 0)" fill="none" stroke="#fff" stroke-miterlimit="10" stroke-width="1"/>
  </g>
</svg>
